<svg width="612" height="612" viewBox="0 0 612 612" fill="none" xmlns="http://www.w3.org/2000/svg">
<rect width="612" height="612" fill="#A8B2D1"/>
<path d="M306 0C137.088 0 0 137.088 0 306C0 474.912 137.088 612 306 612C474.912 612 612 474.912 612 306C612 137.088 474.912 0 306 0ZM306 91.8C356.796 91.8 397.8 132.804 397.8 183.6C397.8 234.396 356.796 275.4 306 275.4C255.204 275.4 214.2 234.396 214.2 183.6C214.2 132.804 255.204 91.8 306 91.8ZM306 526.32C229.5 526.32 161.874 487.152 122.4 427.788C123.318 366.894 244.8 333.54 306 333.54C366.894 333.54 488.682 366.894 489.6 427.788C450.126 487.152 382.5 526.32 306 526.32Z" fill="#0A192F"/>
</svg>
